<svg id="Layer_1" data-name="Layer 1" xmlns="http://www.w3.org/2000/svg" viewBox="0 0 48 48"><defs><style>.cls-1{fill:#8d6fc9;}</style></defs><title>logo-marketo</title><path class="cls-1" d="M22.17,22.58H19.09a1.8,1.8,0,0,0-1.67,1.32l-1.49,6.37c2,.11,3.93.3,5.67.54l1.62-6.92a1,1,0,0,0-1.05-1.32M14.12,26.1H11a1.8,1.8,0,0,0-1.67,1.32l-.66,2.8c.48,0,1-.06,1.5-.07q2.26,0,4.31.06l.65-2.79a1,1,0,0,0-1.05-1.32m15.7-6.54H26.75a1.8,1.8,0,0,0-1.67,1.32L22.7,31a52,52,0,0,1,5.53,1.17l2.64-11.28a1,1,0,0,0-1.05-1.32m8.37-5.3H35.12a1.8,1.8,0,0,0-1.67,1.32l-4,16.94a35.4,35.4,0,0,1,5.32,2.07l4.45-19a1,1,0,0,0-1.05-1.32"/><path class="cls-1" d="M24,44.75A20.75,20.75,0,1,1,44.75,24,20.75,20.75,0,0,1,24,44.75M24,0A24,24,0,1,0,48,24,24,24,0,0,0,24,0"/></svg>