<?xml version="1.0" encoding="utf-8"?>
<!-- Generator: Adobe Illustrator 21.1.0, SVG Export Plug-In . SVG Version: 6.00 Build 0)  -->
<svg version="1.1" id="Layer_1" xmlns="http://www.w3.org/2000/svg" xmlns:xlink="http://www.w3.org/1999/xlink" x="0px" y="0px"
	 viewBox="0 0 473 512" style="enable-background:new 0 0 473 512;" xml:space="preserve">
<style type="text/css">
	.st0{fill:#373E4C;}
</style>
<path class="st0" d="M434.9,107C399.4,49.9,336.3,12.7,269.7,6.1c-0.4,0-3.6-0.2-6.8-0.3c-4.2-0.1-9.6-0.2-12.3-0.2
	c-4.9,0-9.5,0.1-13.9,0.4c-6.6,0.4-12.5,1-17.4,1.7c-0.1,0-0.1,0-0.2,0C161.9,17,107.3,44.5,68.9,88.4
	C31.3,129.6,10,183.8,4.8,239.1v35.8c5.8,54.5,26.8,107.9,64,148.6c14.9,17,32.2,31.6,51.2,43.6c25.6,17.5,55.5,29.7,87.3,35.5
	c8.7,1.6,17.5,2.7,26.4,3.3c0.3,0,0.5,0.1,0.8,0.1h0.6c5,0.3,10.1,0.5,15.1,0.5c5.1,0,10.2-0.2,15.2-0.5c5.3-0.3,10.6-0.9,15.9-1.5
	c6.9-0.9,13.7-2.1,20.4-3.6c1-0.2,1.9-0.3,2.9-0.5c0,0,0-0.1,0-0.1c0,0,0,0,0,0c0-7.2,0-18.2,0-28.3c0-10.7,0-20.4,0-23.8
	c-58.4,16.9-123.6,4.6-171-33.6C68.1,365.4,38.6,274,64.5,196C91,107.9,184.5,44.9,276.3,58.8c77.2,10.8,140.3,81.8,142.2,159.6
	c1.9,35.4-9.2,70-27,100.2c-17.6-41.1-32.6-83.2-50.7-124.1c-7.1-17.4-27.5-30.8-46.3-23.7c-17.1,5.2-25,22.3-31.1,37.6
	c-13.4,33.9-26.9,67.9-40.6,101.7c-18.4-45-36.5-90.2-54.8-135.2c-18.3,0.1-36.6,0-54.8,0.1c22.6,56,45.4,111.9,67.6,167.9
	c5.7,13.8,12.8,29.2,27.8,34.9c19.9,9.2,43.8-3.6,50.9-23.5c16.2-37.2,30.1-75.5,45.7-112.9c16.5,38.8,30.4,78.7,47.9,117
	c10.6,24.6,46.2,29.7,63.6,9.4C479.3,297.5,486.5,185.4,434.9,107z"/>
</svg>
