<?xml version="1.0" encoding="iso-8859-1"?>
<!-- Generator: Adobe Illustrator 19.0.0, SVG Export Plug-In . SVG Version: 6.00 Build 0)  -->
<svg version="1.1" id="Layer_1" xmlns="http://www.w3.org/2000/svg" xmlns:xlink="http://www.w3.org/1999/xlink" x="0px" y="0px"
	 viewBox="0 0 512 512" style="enable-background:new 0 0 512 512;" xml:space="preserve">
<path style="fill:#28B446;" d="M441.412,140.235v338.781c0,18.219-14.778,32.983-32.983,32.983H103.572
	c-18.219,0-32.983-14.764-32.983-32.983V32.983C70.588,14.764,85.352,0,103.572,0h197.605L441.412,140.235z"/>
<polygon style="fill:#219B38;" points="320.31,137.188 441.412,187.079 441.412,140.235 372.751,119.962 "/>
<path style="fill:#6ACE7C;" d="M441.412,140.235H334.16c-18.22,0-32.983-14.764-32.983-32.983V0L441.412,140.235z"/>
<path style="fill:#FFFFFF;" d="M337.115,254.946H174.876c-5.82,0-10.536,4.717-10.536,10.536v141.169
	c0,5.818,4.716,10.536,10.536,10.536h162.239c5.82,0,10.536-4.717,10.536-10.536V265.482
	C347.651,259.664,342.935,254.946,337.115,254.946z M185.412,322.682h60.048v26.773h-60.048V322.682z M266.531,322.682h60.048
	v26.773h-60.048V322.682z M326.58,301.611h-60.048v-25.593h60.048L326.58,301.611L326.58,301.611z M245.46,276.018v25.592h-60.048
	v-25.592H245.46z M185.412,370.526h60.048v25.592h-60.048V370.526z M266.531,396.117v-25.592h60.048v25.592H266.531z"/>
<g>
</g>
<g>
</g>
<g>
</g>
<g>
</g>
<g>
</g>
<g>
</g>
<g>
</g>
<g>
</g>
<g>
</g>
<g>
</g>
<g>
</g>
<g>
</g>
<g>
</g>
<g>
</g>
<g>
</g>
</svg>
