<svg width="20" height="20" viewBox="0 0 20 20" fill="none" xmlns="http://www.w3.org/2000/svg">
    <path d="M17.5764 5.28228L10.2976 1.07987C10.2071 1.02755 10.1045 1 9.99999 1C9.8955 1 9.79285 1.02755 9.7024 1.07987L2.42355 5.28228C2.33317 5.33456 2.25814 5.4097 2.20598 5.50015C2.15382 5.5906 2.12637 5.69318 2.12639 5.79759V14.2024C2.12637 14.3068 2.15382 14.4094 2.20598 14.4999C2.25814 14.5903 2.33317 14.6654 2.42355 14.7177L9.7024 18.9201C9.79285 18.9724 9.8955 19 9.99999 19C10.1045 19 10.2071 18.9724 10.2976 18.9201L17.5764 14.7177C17.6668 14.6654 17.7419 14.5903 17.794 14.4999C17.8462 14.4094 17.8736 14.3068 17.8736 14.2024V5.79759C17.8736 5.69318 17.8462 5.5906 17.794 5.50015C17.7419 5.4097 17.6668 5.33456 17.5764 5.28228ZM16.0382 13.4861L9.99956 16.9731L3.95748 13.4861V6.51474L9.99613 3.02863V9.4864C9.99625 9.53862 10.0101 9.58988 10.0363 9.63507C10.0624 9.68025 10.1 9.71777 10.1452 9.74386C10.1904 9.76995 10.2417 9.7837 10.294 9.78374C10.3462 9.78377 10.3975 9.77009 10.4427 9.74406L16.0382 6.51474V13.4861Z" fill="#ED485F"/>
</svg>
