<svg xmlns="http://www.w3.org/2000/svg" width="245" height="208" viewBox="0 0 245 208"><title>dr</title><defs><linearGradient x1="50.003%" y1=".028%" x2="50.003%" y2="99.442%" id="a"><stop offset="0%"/><stop stop-color="#333" offset="100%"/></linearGradient></defs><g fill="none" fill-rule="evenodd"><path d="M64.8 205.654c0 1.177 1.2 2.146 2.7 2.146 1.5 0 2.7-.97 2.7-2.146v-16.408c0-1.177-1.2-2.146-2.7-2.146-1.5 0-2.7.97-2.7 2.146v16.408zM180.9 205.654c0 1.177-1.2 2.146-2.7 2.146-1.5 0-2.7-.97-2.7-2.146v-16.408c0-1.177 1.2-2.146 2.7-2.146 1.5 0 2.7.97 2.7 2.146v16.408z" fill="#B1C7D1"/><path d="M70 207.8v-23.3h105.6v23.3H70z" fill="#B1C7D1"/><path d="M157.4 176.5H88.2l-18.3 6.2c-1 .4-.7 1.9.4 1.9h105.2c1.1 0 1.3-1.5.4-1.9l-18.5-6.2z" fill="#A3B5BF"/><path fill="#82919A" d="M87.9 171.2h69.8v5.3H87.9z"/><path fill="#6E7981" d="M91.6 167.8H154v4.3H91.6z"/><path d="M234.7 138c0 16.5-13.5 30-30 30H40.3c-16.5 0-30-13.5-30-30V30c0-16.5 13.5-30 30-30h164.3c16.5 0 30 13.5 30 30v108h.1z" fill="#B1C7D1"/><path d="M14.9 49.8l-5.5.9c-4.7.8-8.5 5.2-8.5 10v33.5c0 4.8 3.7 9.2 8.5 10l5.5.9V49.8zM230.1 49.8l5.5.9c4.7.8 8.5 5.2 8.5 10v33.5c0 4.8-3.7 9.2-8.5 10l-5.5.9V49.8z" fill="#B1C7D1"/><path d="M235 54.1l-4.9-.8V35.5c0-14.3-11.7-26-26-26H40.9c-14.3 0-26 11.7-26 26v17.7l-4.9.9c-3.1.5-5.6 3.5-5.6 6.6v33.5c0 3.1 2.5 6.1 5.6 6.6l4.9.8v29.9c0 14.3 11.7 26 26 26h163.2c14.3 0 26-11.7 26-26v-29.9l4.9-.8c3.1-.5 5.6-3.5 5.6-6.6V60.7c.1-3.1-2.5-6.1-5.6-6.6z" fill="url(#a)"/><g transform="translate(111 2)"><circle fill="#78878D" cx="2.7" cy="3.5" r="2.7"/><g transform="translate(0 1)"><circle cx="2.7" cy="2.8" r="2.2" fill="#FFF"/><circle fill="#78878D" cx="2.7" cy="2.5" r="2.2"/></g><circle fill="#78878D" cx="2.7" cy="3.5" r="1.7"/><circle opacity=".5" fill="#78878D" cx="2" cy="2.8" r=".4"/><circle opacity=".5" fill="#78878D" cx="3.2" cy="4" r=".8"/></g><g transform="translate(119 2)"><circle fill="#78878D" cx="3.5" cy="3.5" r="2.7"/><g transform="translate(1 1)"><circle cx="2.5" cy="2.8" r="2.2" fill="#FFF"/><circle fill="#78878D" cx="2.5" cy="2.5" r="2.2"/></g><circle fill="#78878D" cx="3.5" cy="3.5" r="1.7"/><circle opacity=".5" fill="#78878D" cx="2.8" cy="2.8" r=".4"/><circle opacity=".5" fill="#78878D" cx="4" cy="4" r=".8"/></g><g transform="translate(128 2)"><circle fill="#78878D" cx="3.3" cy="3.5" r="2.7"/><g transform="translate(1 1)"><circle cx="2.3" cy="2.8" r="2.2" fill="#FFF"/><circle fill="#78878D" cx="2.3" cy="2.5" r="2.2"/></g><circle fill="#78878D" cx="3.3" cy="3.5" r="1.7"/><circle opacity=".5" fill="#78878D" cx="2.6" cy="2.8" r=".4"/><circle opacity=".5" fill="#78878D" cx="3.8" cy="4" r=".8"/></g><g transform="translate(113 161)"><circle opacity=".5" fill="#78878D" cx="2.7" cy="2.2" r="1.9"/><circle cx="1.7" cy="1.4" r=".8" fill="#FFF" transform="translate(1 1)"/><circle cx="1.7" cy="1.2" r=".8" fill="#78878D" transform="translate(1 1)"/></g><g transform="translate(120 161)"><circle opacity=".5" fill="#78878D" cx="2.5" cy="2.2" r="1.9"/><circle cx="1.5" cy="1.4" r=".8" fill="#FFF" transform="translate(1 1)"/><circle cx="1.5" cy="1.2" r=".8" fill="#78878D" transform="translate(1 1)"/></g><g transform="translate(127 161)"><circle opacity=".5" fill="#78878D" cx="2.3" cy="2.2" r="1.9"/><circle cx="1.3" cy="1.4" r=".8" fill="#FFF" transform="translate(1 1)"/><circle cx="1.3" cy="1.2" r=".8" fill="#78878D" transform="translate(1 1)"/></g><g><path d="M14.9 53.3l-4.9.8c-3.1.5-5.6 3.5-5.6 6.6v33.5c0 3.1 2.5 6.1 5.6 6.6l4.9.8V53.3z" fill="#96A8B0"/><g fill="#010101" transform="translate(4 53)"><circle cx="8.5" cy="28.5" r="1.2"/><circle cx="8.5" cy="38.5" r="1.2"/><circle cx="8.5" cy="23.5" r="1.2"/><path d="M10.9 42.3v-2.5c-.7 0-1.2.6-1.2 1.2s.5 1.2 1.2 1.3zM9.7 36c0 .7.5 1.2 1.2 1.2v-2.5c-.7.1-1.2.7-1.2 1.3zM9.7 31c0 .7.5 1.2 1.2 1.2v-2.5c-.7.1-1.2.7-1.2 1.3z"/><circle cx="6" cy="26" r="1.2"/><circle cx="3.5" cy="43.5" r="1.2"/><path d="M1.6 45c.2.2.3.4.5.6-.1-.2-.2-.4-.5-.6zM1 19.8c-.2 0-.4.1-.6.2v2.1c.2.1.4.2.6.2.7 0 1.2-.6 1.2-1.2s-.5-1.3-1.2-1.3z"/><circle cx="3.5" cy="23.5" r="1.2"/><circle cx="3.5" cy="28.5" r="1.2"/><circle cx="8.5" cy="33.5" r="1.2"/><circle cx="6" cy="31" r="1.2"/><path d="M10.9 22.3v-2.5c-.7 0-1.2.6-1.2 1.2s.5 1.2 1.2 1.3zM2.2 41c0-.7-.6-1.2-1.2-1.2-.2 0-.4.1-.6.2v1.2c0 .3 0 .6.1 1 .2.1.3.1.5.1.7 0 1.2-.6 1.2-1.3zM10.9 27.3v-2.5c-.7 0-1.2.6-1.2 1.2s.5 1.2 1.2 1.3z"/><circle cx="3.5" cy="38.5" r="1.2"/><circle cx="6" cy="46" r="1.2"/><path d="M1 24.8c-.2 0-.4.1-.6.2v2.1c.2.1.4.2.6.2.7 0 1.2-.6 1.2-1.2s-.5-1.3-1.2-1.3z"/><circle cx="3.5" cy="33.5" r="1.2"/><path d="M2.2 31c0-.7-.6-1.2-1.2-1.2-.2 0-.4.1-.6.2v2.1c.2.1.4.2.6.2.7 0 1.2-.6 1.2-1.3zM1 34.8c-.2 0-.4.1-.6.2v2.1c.2.1.4.2.6.2.7 0 1.2-.6 1.2-1.2s-.5-1.3-1.2-1.3z"/><circle cx="6" cy="36" r="1.2"/><circle cx="6" cy="6" r="1.2"/><circle cx="6" cy="41" r="1.2"/><circle cx="3.5" cy="8.5" r="1.2"/><circle cx="8.5" cy="8.5" r="1.2"/><circle cx="8.5" cy="3.5" r="1.2"/><circle cx="3.5" cy="13.5" r="1.2"/><path d="M1 9.8c-.2 0-.4.1-.6.2v2.1c.2.1.4.2.6.2.7 0 1.2-.6 1.2-1.2S1.7 9.8 1 9.8zM1 7.3c.7 0 1.2-.6 1.2-1.2 0-.7-.5-1.2-1.1-1.2-.4.7-.6 1.5-.7 2.3.2 0 .4.1.6.1zM9.7 6c0 .7.5 1.2 1.2 1.2V4.7c-.7.1-1.2.7-1.2 1.3zM3.5 4.8c.7 0 1.2-.6 1.2-1.2s-.6-1.2-1.2-1.2c-.1 0-.2 0-.3.1-.3.2-.6.5-.8.7-.1.1-.1.3-.1.5-.1.5.5 1.1 1.2 1.1zM9.7 1c0 .7.5 1.2 1.2 1.2v-2l-1 .2c-.1.2-.2.4-.2.6zM4.8 1.4c.2.5.6.9 1.2.9.7 0 1.2-.6 1.2-1.3V.8L6 1.1l-1.2.3z"/><circle cx="6" cy="11" r="1.2"/><path d="M9.7 11c0 .7.5 1.2 1.2 1.2V9.7c-.7.1-1.2.7-1.2 1.3zM10.9 17.3v-2.5c-.7 0-1.2.6-1.2 1.2s.5 1.2 1.2 1.3zM8.5 47.3c-.5 0-1 .3-1.1.8l2.4.4c-.2-.7-.7-1.2-1.3-1.2z"/><circle cx="8.5" cy="43.5" r="1.2"/><path d="M10.9 47.3v-2.5c-.7 0-1.2.6-1.2 1.2s.5 1.2 1.2 1.3z"/><circle cx="8.5" cy="13.5" r="1.2"/><path d="M1 14.8c-.2 0-.4.1-.6.2v2.1c.2.1.4.2.6.2.7 0 1.2-.6 1.2-1.2s-.5-1.3-1.2-1.3z"/><circle cx="3.5" cy="18.5" r="1.2"/><circle cx="6" cy="16" r="1.2"/><circle cx="8.5" cy="18.5" r="1.2"/><circle cx="6" cy="21" r="1.2"/></g></g><g><path d="M230.1 53.3l4.9.8c3.1.5 5.6 3.5 5.6 6.6v33.5c0 3.1-2.5 6.1-5.6 6.6l-4.9.8V53.3z" fill="#96A8B0"/><g fill="#010101" transform="matrix(-1 0 0 1 241 53)"><circle cx="8.5" cy="28.5" r="1.2"/><circle cx="8.5" cy="38.5" r="1.2"/><circle cx="8.5" cy="23.5" r="1.2"/><path d="M10.9 42.3v-2.5c-.7 0-1.2.6-1.2 1.2s.5 1.2 1.2 1.3zM9.7 36c0 .7.5 1.2 1.2 1.2v-2.5c-.7.1-1.2.7-1.2 1.3zM9.7 31c0 .7.5 1.2 1.2 1.2v-2.5c-.7.1-1.2.7-1.2 1.3z"/><circle cx="6" cy="26" r="1.2"/><circle cx="3.5" cy="43.5" r="1.2"/><path d="M1.6 45c.2.2.3.4.5.6-.1-.2-.2-.4-.5-.6zM1 19.8c-.2 0-.4.1-.6.2v2.1c.2.1.4.2.6.2.7 0 1.2-.6 1.2-1.2s-.5-1.3-1.2-1.3z"/><circle cx="3.5" cy="23.5" r="1.2"/><circle cx="3.5" cy="28.5" r="1.2"/><circle cx="8.5" cy="33.5" r="1.2"/><circle cx="6" cy="31" r="1.2"/><path d="M10.9 22.3v-2.5c-.7 0-1.2.6-1.2 1.2s.5 1.2 1.2 1.3zM2.2 41c0-.7-.6-1.2-1.2-1.2-.2 0-.4.1-.6.2v1.2c0 .3 0 .6.1 1 .2.1.3.1.5.1.7 0 1.2-.6 1.2-1.3zM10.9 27.3v-2.5c-.7 0-1.2.6-1.2 1.2s.5 1.2 1.2 1.3z"/><circle cx="3.5" cy="38.5" r="1.2"/><circle cx="6" cy="46" r="1.2"/><path d="M1 24.8c-.2 0-.4.1-.6.2v2.1c.2.1.4.2.6.2.7 0 1.2-.6 1.2-1.2s-.5-1.3-1.2-1.3z"/><circle cx="3.5" cy="33.5" r="1.2"/><path d="M2.2 31c0-.7-.6-1.2-1.2-1.2-.2 0-.4.1-.6.2v2.1c.2.1.4.2.6.2.7 0 1.2-.6 1.2-1.3zM1 34.8c-.2 0-.4.1-.6.2v2.1c.2.1.4.2.6.2.7 0 1.2-.6 1.2-1.2s-.5-1.3-1.2-1.3z"/><circle cx="6" cy="36" r="1.2"/><circle cx="6" cy="6" r="1.2"/><circle cx="6" cy="41" r="1.2"/><circle cx="3.5" cy="8.5" r="1.2"/><circle cx="8.5" cy="8.5" r="1.2"/><circle cx="8.5" cy="3.5" r="1.2"/><circle cx="3.5" cy="13.5" r="1.2"/><path d="M1 9.8c-.2 0-.4.1-.6.2v2.1c.2.1.4.2.6.2.7 0 1.2-.6 1.2-1.2S1.7 9.8 1 9.8zM1 7.3c.7 0 1.2-.6 1.2-1.2 0-.7-.5-1.2-1.1-1.2-.4.7-.6 1.5-.7 2.3.2 0 .4.1.6.1zM9.7 6c0 .7.5 1.2 1.2 1.2V4.7c-.7.1-1.2.7-1.2 1.3zM3.5 4.8c.7 0 1.2-.6 1.2-1.2s-.6-1.2-1.2-1.2c-.1 0-.2 0-.3.1-.3.2-.6.5-.8.7-.1.1-.1.3-.1.5-.1.5.5 1.1 1.2 1.1zM9.7 1c0 .7.5 1.2 1.2 1.2v-2l-1 .2c-.1.2-.2.4-.2.6zM4.8 1.4c.2.5.6.9 1.2.9.7 0 1.2-.6 1.2-1.3V.8L6 1.1l-1.2.3z"/><circle cx="6" cy="11" r="1.2"/><path d="M9.7 11c0 .7.5 1.2 1.2 1.2V9.7c-.7.1-1.2.7-1.2 1.3zM10.9 17.3v-2.5c-.7 0-1.2.6-1.2 1.2s.5 1.2 1.2 1.3zM8.5 47.3c-.5 0-1 .3-1.1.8l2.4.4c-.2-.7-.7-1.2-1.3-1.2z"/><circle cx="8.5" cy="43.5" r="1.2"/><path d="M10.9 47.3v-2.5c-.7 0-1.2.6-1.2 1.2s.5 1.2 1.2 1.3z"/><circle cx="8.5" cy="13.5" r="1.2"/><path d="M1 14.8c-.2 0-.4.1-.6.2v2.1c.2.1.4.2.6.2.7 0 1.2-.6 1.2-1.2s-.5-1.3-1.2-1.3z"/><circle cx="3.5" cy="18.5" r="1.2"/><circle cx="6" cy="16" r="1.2"/><circle cx="8.5" cy="18.5" r="1.2"/><circle cx="6" cy="21" r="1.2"/></g></g><g transform="translate(17 11)"><path d="M210.9 120.2c0 13.2-10.8 24-24 24H24.2c-13.2 0-24-10.8-24-24V24.8c0-13.2 10.8-24 24-24h162.7c13.2 0 24 10.8 24 24v95.4z" fill="#333"/><ellipse fill="#148DCE" cx="66.2" cy="76.9" rx="9.5" ry="14.2"/><ellipse fill="#148DCE" cx="144.8" cy="76.9" rx="9.5" ry="14.2"/></g></g></svg>
