<?xml version="1.0" encoding="utf-8"?>
<!-- Svg Vector Icons : http://www.onlinewebfonts.com/icon -->
<!DOCTYPE svg PUBLIC "-//W3C//DTD SVG 1.1//EN" "http://www.w3.org/Graphics/SVG/1.1/DTD/svg11.dtd">
<svg version="1.1" xmlns="http://www.w3.org/2000/svg" xmlns:xlink="http://www.w3.org/1999/xlink" x="0px" y="0px" viewBox="0 0 1000 1000" enable-background="new 0 0 1000 1000" xml:space="preserve">
<metadata> Svg Vector Icons : http://www.onlinewebfonts.com/icon </metadata>
<g><g><g><path d="M10,71.3v735h475.2c49.4,73.8,133.6,122.5,229.1,122.5c95.5,0,179.7-48.7,229.1-122.5H990v-735H10z M438.8,653.1c0,32.3,5.8,63.1,16,91.8H71.3V165.6l415.4,332.3C456.5,542.1,438.8,595.5,438.8,653.1z M127.9,132.5H872L499.9,430.1L127.9,132.5z M714.4,863.9c-116.4-0.3-210.6-94.4-210.9-210.8c0.3-116.4,94.4-210.6,210.9-210.8c116.3,0.2,210.5,94.4,210.8,210.8C924.9,769.5,830.7,863.6,714.4,863.9z M928.7,480C878.2,417.5,801,377.5,714.4,377.5c-20.1,0-39.7,2.3-58.6,6.4l272.9-218.3V480z"/><polygon points="745,653.1 745,775.6 867.5,653.1 745,530.6 "/><polygon points="622.5,775.6 745,653.1 622.5,530.6 "/></g></g><g></g><g></g><g></g><g></g><g></g><g></g><g></g><g></g><g></g><g></g><g></g><g></g><g></g><g></g><g></g></g>
</svg>