<?xml version="1.0" encoding="utf-8"?>
<!DOCTYPE svg PUBLIC "-//W3C//DTD SVG 1.0//EN" "http://www.w3.org/TR/2001/REC-SVG-20010904/DTD/svg10.dtd">
<svg version="1.0" xmlns="http://www.w3.org/2000/svg" xmlns:xlink="http://www.w3.org/1999/xlink" x="0px" y="0px"
	 viewBox="0 0 152 117.5" enable-background="new 0 0 152 117.5" xml:space="preserve">
<g id="paths">
	<g id="Windows_Azure_storage">
		<path fill="#0078D7" d="M93.6,54.1h-3.3V38.7c0-0.8-0.7-1.5-1.5-1.5H52.3c-0.8,0-1.5,0.7-1.5,1.5v30.7c0,0.8,0.7,1.5,1.5,1.5h20.7
			l5.4,9.4h15.1l7.5-13.1L93.6,54.1z M80.1,46h7.3v4.4h-7.3V46z M87.4,51.9v2.2h-7.3v-2.2H87.4z M71.3,46h7.3v4.4h-7.3V46z
			 M71.3,51.9h7.3v2.2h-0.2l-1.3,2.2h-5.9V51.9z M71.3,57.7h5l-2.5,4.4h-2.5V57.7z M73,63.5l-1.7,2.9v-2.9H73z M61.1,67.9h-7.3v-4.4
			h7.3V67.9z M61.1,62.1h-7.3v-4.4h7.3V62.1z M61.1,56.2h-7.3v-4.4h7.3V56.2z M61.1,50.4h-7.3V46h7.3V50.4z M69.9,67.9h-7.3v-4.4
			h7.3V67.9z M69.9,62.1h-7.3v-4.4h7.3V62.1z M69.9,56.2h-7.3v-4.4h7.3V56.2z M69.9,50.4h-7.3V46h7.3V50.4z M71.3,67.9v-0.1V67.9
			L71.3,67.9z"/>
	</g>
</g>
</svg>
