<svg width="2500" height="977" viewBox="0 0 512 200" xmlns="http://www.w3.org/2000/svg" preserveAspectRatio="xMinYMin meet"><g fill="#264970"><path d="M468.909 51.385a3.59 3.59 0 0 0-3.426-2.512h-33.52a3.589 3.589 0 0 0-3.424 2.512l-42.29 134.129a3.59 3.59 0 0 0 3.425 4.673h23.077a3.59 3.59 0 0 0 3.445-2.575l29.122-98.647s.762-2.464 3.4-2.464c2.68 0 3.334 2.56 3.334 2.563l13.511 46.78H447a3.591 3.591 0 0 0-3.457 2.618l-5.21 18.519a3.587 3.587 0 0 0 .596 3.14 3.589 3.589 0 0 0 2.863 1.424h31.326l8.138 26.117a3.593 3.593 0 0 0 3.43 2.525h23.087a3.592 3.592 0 0 0 3.425-4.673l-42.29-134.13"/><path d="M311.281 74.988h27.933c14.446 0 17.346 5.684 17.346 14.857v13.699c0 11.417-4.376 15.269-17.346 15.269h-27.933V74.988zm85.289 109.27l-30.694-44.277c13.216-5.482 19.914-16.972 19.914-34.154V87.77c0-26.902-14.045-38.897-45.54-38.897h-54.606a3.592 3.592 0 0 0-3.592 3.59v134.13a3.593 3.593 0 0 0 3.592 3.594h22.045a3.593 3.593 0 0 0 3.592-3.593v-42.066h22.561l30.684 44.117a3.595 3.595 0 0 0 2.949 1.542h26.367a3.592 3.592 0 0 0 2.728-5.93zM255.268 48.873h-22.046a3.592 3.592 0 0 0-3.592 3.59v134.13a3.593 3.593 0 0 0 3.592 3.594h22.046a3.593 3.593 0 0 0 3.593-3.593V52.464a3.592 3.592 0 0 0-3.593-3.591M203.64 48.873h-22.314a3.43 3.43 0 0 0-3.43 3.42V157.25c0 13.19-10.051 17.526-16.853 17.872-.917.045-1.984.623-2.57 1.48a3.415 3.415 0 0 0-.447 2.932l5.425 17.648c.443 1.444 2 2.373 4.532 2.373 21.35 0 39.077-16.763 39.077-39.232V52.295a3.42 3.42 0 0 0-3.42-3.422"/><g><path d="M30.847 12.281c-6.856 0-12.407 5.544-12.407 12.417 0 6.856 5.551 12.42 12.407 12.42 6.86 0 12.406-5.564 12.406-12.42 0-6.873-5.545-12.417-12.406-12.417M112.356 12.281c-6.859 0-12.403 5.544-12.403 12.417 0 6.856 5.544 12.42 12.403 12.42 6.84 0 12.404-5.564 12.404-12.42 0-6.873-5.564-12.408-12.404-12.417M71.601.951c-6.855 0-12.406 5.543-12.406 12.418 0 6.856 5.55 12.42 12.406 12.42 6.86 0 12.405-5.564 12.405-12.42C84.006 6.494 78.46.951 71.6.951M141.686 46.882a3.9 3.9 0 0 0-2.362-.797c-.467 0-.94.085-1.386.257-8.4 3.213-16.932 5.652-24.718 7.466-1.588.37-2.87 1.55-3.402 2.966-5.673 15.539-20.159 30.336-35.357 45.834-.61.579-1.464 1.343-2.855 1.343-1.388 0-2.234-.74-2.855-1.343C53.555 87.11 39.069 72.364 33.394 56.824c-.532-1.415-1.815-2.594-3.4-2.966-7.791-1.814-16.343-4.329-24.734-7.54a3.91 3.91 0 0 0-1.39-.257c-.841 0-1.656.264-2.344.79a3.881 3.881 0 0 0-1.508 3.432c1.287 12.922 6.393 25.555 15.608 38.792 8.662 12.446 19.96 23.966 30.883 35.106 20.126 20.53 39.139 39.918 40.807 62.401a3.889 3.889 0 0 0 3.878 3.6h23.646a3.892 3.892 0 0 0 3.884-4.08c-.744-15.032-6.401-30.086-17.294-46.016-2.283-3.34-4.728-6.59-7.285-9.77-1.039-1.295-.604-2.904.19-3.716.786-.804 1.575-1.606 2.37-2.419 10.923-11.14 22.22-22.66 30.883-35.106 9.214-13.239 14.318-25.797 15.606-38.717.128-1.298-.461-2.676-1.508-3.476M46.232 141.67c-.56-.585-1.381-1.182-2.761-1.182-1.765 0-2.812 1.22-3.208 1.824-9.946 15.135-15.083 29.42-15.793 43.775a3.938 3.938 0 0 0 1.07 2.883 3.937 3.937 0 0 0 2.83 1.212h23.605a3.92 3.92 0 0 0 3.891-3.614c.514-6.919 2.668-13.854 6.59-21.142 1.36-2.521.303-4.89-.479-5.902-3.89-5.06-8.656-10.457-15.745-17.854"/><path d="M71.628 58.466c7.41 0 11.708-.445 13.218-.445 1.83 0 3.577 1.499 3.577 3.597 0 .612-.145 1.05-.288 1.437-.983 2.627-5.462 12.08-13.801 20.189-.936.91-1.996 1.08-2.726 1.08H71.6c-.729 0-1.788-.17-2.723-1.08-8.34-8.109-12.82-17.562-13.8-20.19-.145-.386-.29-.824-.29-1.436 0-2.098 1.75-3.597 3.58-3.597 1.51 0 5.805.445 13.213.445h.049"/></g></g></svg>
