<svg id="Layer_1" data-name="Layer 1" xmlns="http://www.w3.org/2000/svg" viewBox="0 0 189.56 81.32"><defs><style>.cls-1{fill:#3c4345;}.cls-2{fill:#7e64e0;}</style></defs><title>looker</title><path class="cls-1" d="M17.55,76V34.16H11.22v42.1c0,9.92,6.25,15.3,15.38,14.23v-6c-4.82.23-9-1.52-9-8.41" transform="translate(-11.22 -10.17)"/><path class="cls-1" d="M45.61,50.52c-11,0-19.54,9.24-19.54,20.6,0,11.2,8.52,20.36,19.54,20.36s19.52-9.16,19.52-20.36c0-11.36-8.45-20.6-19.52-20.6m13,22c0,0.47-.11.94-0.2,1.4,0,0.23-.09.46-0.15,0.68q-0.16.68-.38,1.33a14.68,14.68,0,0,1-.79,1.88q-0.3.6-.66,1.17t-0.75,1.09q-0.4.52-.85,1T53.95,82q-0.49.43-1,.82a12.21,12.21,0,0,1-14.6,0q-0.52-.38-1-0.82t-0.93-.91q-0.44-.48-0.85-1T34.8,79q-0.35-.56-0.66-1.17A14.68,14.68,0,0,1,33.36,76q-0.22-.65-0.38-1.33c-0.05-.23-0.1-0.45-0.15-0.68-0.09-.46-0.15-0.93-0.2-1.4s-0.07-1-.07-1.44c0-8,5.89-14.47,13.05-14.47s13.11,6.52,13.11,14.47q0,0.73-.07,1.44" transform="translate(-11.22 -10.17)"/><polygon class="cls-1" points="131.35 41.34 121.93 41.34 104.21 58.83 104.21 23.99 97.8 23.99 97.8 80.33 104.21 80.33 104.21 67.76 111.67 60.49 124.94 80.33 132.71 80.33 116.35 55.95 131.35 41.34"/><path class="cls-1" d="M159.38,85.58c-6.4,0-12.59-4.78-13.42-12.87h32.65C178.69,58.85,169,50.52,159,50.52c-10.78,0-19.52,9.24-19.52,20.52s8.74,20.36,19.9,20.36c9,0,15.61-4.69,18.32-13h-6.79a12,12,0,0,1-11.53,7.2M159,56.35c5.65,0,10.93,4.23,12.52,10.6H146.34c1.66-6.66,7.31-10.6,12.67-10.6" transform="translate(-11.22 -10.17)"/><path class="cls-1" d="M188.11,55.9V51.5h-6.19v39h6.41V67.93c0-7.8,5.73-11.35,12.44-11V50.6a13.7,13.7,0,0,0-12.67,5.3" transform="translate(-11.22 -10.17)"/><path class="cls-2" d="M66.38,49.35A7.83,7.83,0,1,1,71,35.22l3.44-3.44a12.33,12.33,0,0,0-8.07-3,12.76,12.76,0,0,0,0,25.51,12.28,12.28,0,0,0,6.12-1.63l-2.9-4a7.79,7.79,0,0,1-3.21.7" transform="translate(-11.22 -10.17)"/><path class="cls-2" d="M78.9,41.52a12.84,12.84,0,0,0-3-8.24l-3.41,3.4a7.8,7.8,0,0,1-.45,10.19L75,50.82a12.83,12.83,0,0,0,3.95-9.29" transform="translate(-11.22 -10.17)"/><path class="cls-2" d="M101.42,57.71a19.15,19.15,0,0,0-24.83-4.48l3.53,5.14A12.38,12.38,0,0,1,96,61.12a15.66,15.66,0,0,1,3.71,10.16A14.44,14.44,0,0,1,94.88,82a12.53,12.53,0,0,1-18-1,15.11,15.11,0,0,1,.85-20.79l-3.6-5.26a19.55,19.55,0,0,0-7.47,14.92c0,6.44,1.73,11.11,5.11,15a19.52,19.52,0,0,0,28,1.26,21.28,21.28,0,0,0,1.63-28.41" transform="translate(-11.22 -10.17)"/><path class="cls-2" d="M82.64,17.34a7.57,7.57,0,0,0-4.9,1.8l2.18,2.07a4.81,4.81,0,1,1,.18,8L78,31.36A7.55,7.55,0,0,0,82.64,33a7.83,7.83,0,0,0,0-15.65" transform="translate(-11.22 -10.17)"/><path class="cls-2" d="M77.83,25.16a4.77,4.77,0,0,1,.67-2.44l-2.17-2a7.91,7.91,0,0,0,.15,9.15l2.1-2.1a4.78,4.78,0,0,1-.75-2.58" transform="translate(-11.22 -10.17)"/><path class="cls-2" d="M71.88,17.89a2.94,2.94,0,1,1,2.69-1.76l1.34,1.27A4.82,4.82,0,0,0,76.58,15a4.7,4.7,0,1,0-4.7,4.79,4.62,4.62,0,0,0,2.59-.8l-1.4-1.31a2.92,2.92,0,0,1-1.2.26" transform="translate(-11.22 -10.17)"/></svg>