<?xml version="1.0"?>
<svg xmlns="http://www.w3.org/2000/svg" viewBox="0 0 50 50">
    <path d="M 25 4 C 19.488666 4 15 8.4886661 15 14 C 15 17.290342 16.632646 20.177403 19.09375 22 L 14.15625 30.15625 C 14.115567 30.143998 14.072483 30.136027 14.03125 30.125 C 13.00125 29.847 11.926 29.99825 11 30.53125 C 9.09 31.63525 8.42825 34.091 9.53125 36 C 10.27125 37.281 11.616 38 13 38 C 13.678 38 14.373 37.83075 15 37.46875 C 15.925 36.93475 16.599 36.06325 16.875 35.03125 C 17.152 33.99925 17.00275 32.925 16.46875 32 C 16.300841 31.709146 16.071742 31.453774 15.84375 31.21875 L 21.28125 22.28125 L 21.8125 21.40625 L 20.9375 20.90625 C 18.583167 19.514447 17 16.942119 17 14 C 17 9.5693339 20.569334 6 25 6 C 29.430666 6 33 9.5693339 33 14 C 33 14.823711 32.886137 15.59906 32.65625 16.34375 L 34.5625 16.9375 C 34.850613 16.00419 35 15.024289 35 14 C 35 8.4886661 30.511334 4 25 4 z M 25 10 C 22.794 10 21 11.794 21 14 C 21 16.206 22.794 18 25 18 C 25.331782 18 25.660308 17.951459 25.96875 17.875 L 30.78125 26.59375 L 31.25 27.46875 L 32.15625 27 C 33.301266 26.368819 34.597114 26 36 26 C 40.430666 26 44 29.569334 44 34 C 44 38.430666 40.430666 42 36 42 C 33.838643 42 31.878052 41.137165 30.4375 39.75 L 29.0625 41.1875 C 30.859948 42.918335 33.311357 44 36 44 C 41.511334 44 46 39.511334 46 34 C 46 28.488666 41.511334 24 36 24 C 34.61209 24 33.329651 24.361809 32.125 24.875 L 27.71875 16.90625 C 28.499806 16.17582 29 15.151494 29 14 C 29 11.794 27.206 10 25 10 z M 10.5625 24.28125 C 6.2080725 25.365409 3 29.323331 3 34 C 3 39.511334 7.4886661 44 13 44 C 18.156736 44 22.285488 40.020182 22.8125 35 L 32.15625 35 C 32.601556 36.723125 34.13946 38 36 38 C 38.206 38 40 36.206 40 34 C 40 31.794 38.206 30 36 30 C 34.13946 30 32.601556 31.276875 32.15625 33 L 22 33 L 21 33 L 21 34 C 21 38.430666 17.430666 42 13 42 C 8.5693339 42 5 38.430666 5 34 C 5 30.240669 7.5849275 27.115841 11.0625 26.25 L 10.5625 24.28125 z"/>
</svg>
